<svg width="32" height="32" fill="currentColor" viewBox="0 0 32 32"
    xmlns="http://www.w3.org/2000/svg">
    <path
        d="M15.9662 3.04626C8.78875 3.04626 2.96625 8.86564 2.96625 16.0463C2.96625 23.2269 8.78625 29.0463 15.9662 29.0463C23.1462 29.0463 28.9662 23.2263 28.9662 16.0463C28.9662 8.86626 23.1444 3.04626 15.9662 3.04626ZM23.7675 15.75C23.5894 17.7894 22.7181 18.8563 22.0175 19.3913C21.3169 19.9263 20.4756 20.1613 19.75 20.0313C19.4137 19.9711 19.0926 19.8452 18.805 19.6608C18.5174 19.4765 18.2689 19.2373 18.0737 18.9569C17.3384 19.6722 16.3496 20.0671 15.3237 20.055C14.8708 20.0585 14.4222 19.9666 14.0072 19.7854C13.5921 19.6042 13.2197 19.3377 12.9144 19.0031C12.2031 18.2269 11.8519 17.1056 11.9569 15.9263C12.1444 13.7388 13.8887 12.3394 15.5112 12.0838C17.2112 11.8156 18.7756 12.4925 19.4425 13.3L19.6831 13.5913L19.2869 16.74C19.2125 17.6363 19.4919 18.2075 20.055 18.3088C20.2044 18.335 20.5612 18.3006 20.9531 18.0006C21.3731 17.6788 21.8994 17.0006 22.0219 15.5963C22.1687 13.9375 21.75 12.5219 20.8187 11.5031C19.8506 10.4469 18.3756 9.88814 16.5544 9.88814C13.1794 9.88814 10.1912 12.665 9.89312 16.0756C9.75062 17.7131 10.2475 19.2431 11.2931 20.3838C12.3156 21.5 13.75 22.1175 15.3344 22.1175C16.5219 22.1175 17.2475 21.9894 18.4269 21.5688C18.6455 21.4909 18.8861 21.503 19.0958 21.6025C19.3055 21.702 19.4671 21.8808 19.545 22.0994C19.6229 22.318 19.6108 22.5587 19.5113 22.7683C19.4117 22.978 19.233 23.1396 19.0144 23.2175C17.6506 23.7031 16.7219 23.8675 15.3344 23.8675C13.2544 23.8675 11.3612 23.0513 10.0031 21.5694C8.625 20.0625 7.96375 18.0588 8.15 15.9263C8.33187 13.8431 9.30312 11.8869 10.8856 10.4188C12.4681 8.95064 14.4837 8.13814 16.5544 8.13814C18.8794 8.13814 20.8 8.89314 22.1087 10.3213C23.3644 11.6906 23.9531 13.6181 23.7675 15.75Z"
    />
    <path
        d="M15.7856 13.8125C14.8588 13.9581 13.8131 14.8025 13.7019 16.0787C13.6394 16.77 13.8269 17.405 14.2063 17.8206C14.3477 17.9763 14.5206 18.1001 14.7137 18.1836C14.9067 18.2672 15.1153 18.3085 15.3256 18.305C16.595 18.305 17.4963 17.3712 17.6225 15.9262C17.6264 15.8826 17.6335 15.8394 17.6438 15.7969L17.8438 14.2062C17.2242 13.8401 16.4966 13.7009 15.7856 13.8125Z"
    />
</svg>