<svg width="32" height="32" viewBox="0 0 32 32" fill="currentColor"
    xmlns="http://www.w3.org/2000/svg">
    <path
        d="M16 3C8.82098 3 3 8.97187 3 16.3308C3 22.2214 6.72589 27.2125 11.8911 28.9768C11.9635 28.9925 12.0375 29.0003 12.1116 29C12.5933 29 12.779 28.646 12.779 28.3384C12.779 28.0192 12.7674 27.1835 12.7616 26.0692C12.3316 26.17 11.8917 26.2226 11.45 26.2259C8.94866 26.2259 8.37991 24.2817 8.37991 24.2817C7.78795 22.7437 6.93482 22.3317 6.93482 22.3317C5.80313 21.5366 6.92902 21.5134 7.01607 21.5134H7.02187C8.32768 21.6295 9.0125 22.8946 9.0125 22.8946C9.6625 24.0321 10.533 24.3513 11.3107 24.3513C11.8249 24.341 12.3312 24.2224 12.7964 24.0031C12.9125 23.1442 13.2491 22.558 13.6205 22.2214C10.7362 21.8848 7.70089 20.7415 7.70089 15.6344C7.70089 14.1777 8.2058 12.9879 9.03571 12.0594C8.90223 11.7228 8.45536 10.3647 9.16339 8.5308C9.25837 8.50808 9.35598 8.49831 9.45357 8.50178C9.92366 8.50178 10.9857 8.68169 12.7384 9.90044C14.868 9.3046 17.1204 9.3046 19.25 9.90044C21.0027 8.68169 22.0647 8.50178 22.5348 8.50178C22.6324 8.49831 22.73 8.50808 22.825 8.5308C23.533 10.3647 23.0862 11.7228 22.9527 12.0594C23.7826 12.9937 24.2875 14.1835 24.2875 15.6344C24.2875 20.7531 21.2464 21.879 18.3504 22.2098C18.8147 22.6219 19.2326 23.4344 19.2326 24.6763C19.2326 26.458 19.2152 27.8973 19.2152 28.3326C19.2152 28.646 19.3951 29 19.8768 29C19.9548 29.0003 20.0326 28.9926 20.1089 28.9768C25.2799 27.2125 29 22.2156 29 16.3308C29 8.97187 23.179 3 16 3Z"
    />
</svg>