<svg width="32" height="32" viewBox="0 0 32 32" fill="currentColor"
    xmlns="http://www.w3.org/2000/svg">
    <path
        d="M27.9205 3H6.2216C5.03594 3 4 3.85312 4 5.02487V26.772C4 27.9501 5.03594 29 6.2216 29H27.9142C29.1062 29 30 27.9432 30 26.772V5.02487C30.0069 3.85312 29.1062 3 27.9205 3ZM12.0594 24.6723H8.33468V13.0913H12.0594V24.6723ZM10.3259 11.3304H10.2992C9.10713 11.3304 8.33526 10.4431 8.33526 9.33228C8.33526 8.20116 9.12745 7.33469 10.3462 7.33469C11.5649 7.33469 12.3107 8.19478 12.3374 9.33228C12.3368 10.4431 11.5649 11.3304 10.3259 11.3304ZM25.6722 24.6723H21.9475V18.34C21.9475 16.8229 21.4055 15.7864 20.0579 15.7864C19.0283 15.7864 18.419 16.4829 18.1479 17.1613C18.0464 17.405 18.0191 17.737 18.0191 18.0759V24.6723H14.2944V13.0913H18.0191V14.7029C18.5611 13.931 19.4079 12.8202 21.3782 12.8202C23.8232 12.8202 25.6728 14.4319 25.6728 17.9065L25.6722 24.6723Z"
    />
</svg>