<svg width="32" height="32" viewBox="0 0 32 32" fill="none" xmlns="http://www.w3.org/2000/svg">
<path d="M6.09524 3C4.38667 3 3 4.38667 3 6.09524V25.9048C3 27.6133 4.38667 29 6.09524 29H25.9048C27.6133 29 29 27.6133 29 25.9048V6.09524C29 4.38667 27.6133 3 25.9048 3H6.09524ZM7.95238 11.6667H12.1189C12.5708 11.6667 15.0158 11.6359 15.0158 13.8769C15.0158 15.0654 14.2046 15.4674 13.8394 15.6469C14.3841 15.8203 15.381 16.3219 15.381 17.8571C15.381 20.2281 12.663 20.3333 12.2978 20.3333H7.95238V11.6667ZM18.4762 11.6667H22.8095V12.9048H18.4762V11.6667ZM9.80952 13.1708V15.202H11.8033C12.0757 15.202 12.9785 15.0529 12.9785 14.1429C12.9785 13.2329 11.8027 13.1708 11.6231 13.1708H9.80952ZM20.7855 13.5238C23.1998 13.5238 23.8555 15.4056 23.9545 15.8513C24.0474 16.3032 24.0476 16.6995 24.0476 17.2381H19.1569C19.1569 17.7767 19.4423 18.99 20.8847 18.99C21.2685 18.99 21.5525 18.8975 21.8435 18.718C22.1282 18.5385 22.2282 18.3643 22.3211 18.1848H23.9485C23.6637 18.8967 23.28 19.4362 22.7043 19.7953C22.1286 20.1543 21.46 20.3333 20.6924 20.3333C20.2096 20.3333 19.7329 20.2408 19.25 20.0613C18.8662 19.8818 18.4829 19.6153 18.1981 19.3491C17.9133 19.0768 17.7214 18.7176 17.5295 18.2719C17.3376 17.9128 17.2381 17.3743 17.2381 16.9286C17.2381 16.4829 17.4179 13.5238 20.7855 13.5238ZM20.7855 14.78C19.3865 14.78 19.1569 16.1237 19.1569 16.2104H22.228C22.1289 15.7647 21.7265 14.78 20.7855 14.78ZM9.80952 16.4401V18.8292H11.8843C12.0632 18.8292 13.3255 18.7739 13.3255 17.6782C13.3255 16.5887 12.3337 16.4401 11.8843 16.4401H9.80952Z" fill="white"/>
</svg>
